<svg width="32" height="32" viewBox="0 0 32 32" fill="none" xmlns="http://www.w3.org/2000/svg">
  <!-- Background gradient -->
  <defs>
    <linearGradient id="bgGradient" x1="0%" y1="0%" x2="100%" y2="100%">
      <stop offset="0%" style="stop-color:#3B82F6;stop-opacity:1" />
      <stop offset="100%" style="stop-color:#1E40AF;stop-opacity:1" />
    </linearGradient>
  </defs>
  
  <!-- Main circle -->
  <circle cx="16" cy="16" r="15" fill="url(#bgGradient)" stroke="#1E40AF" stroke-width="1"/>
  
  <!-- Sign language hands -->
  <g transform="translate(16, 16)">
    <!-- Left hand -->
    <path d="M-8 -4 Q-8 -6 -6 -6 L-4 -6 Q-2 -6 -2 -4 L-2 -2 Q-2 0 -4 0 L-6 0 Q-8 0 -8 -2 Z" 
          fill="white" opacity="0.9"/>
    <!-- Right hand -->
    <path d="M2 -4 Q2 -6 4 -6 L6 -6 Q8 -6 8 -4 L8 -2 Q8 0 6 0 L4 0 Q2 0 2 -2 Z" 
          fill="white" opacity="0.9"/>
    
    <!-- Connection -->
    <line x1="-2" y1="-2" x2="2" y2="-2" stroke="white" stroke-width="1.5" opacity="0.7"/>
    
    <!-- Fingers detail -->
    <line x1="-6" y1="-4" x2="-6" y2="-6" stroke="#3B82F6" stroke-width="1" opacity="0.7"/>
    <line x1="-4" y1="-4" x2="-4" y2="-6" stroke="#3B82F6" stroke-width="1" opacity="0.7"/>
    <line x1="4" y1="-4" x2="4" y2="-6" stroke="#3B82F6" stroke-width="1" opacity="0.7"/>
    <line x1="6" y1="-4" x2="6" y2="-6" stroke="#3B82F6" stroke-width="1" opacity="0.7"/>
  </g>
  
  <!-- DGS text -->
  <text x="16" y="26" font-family="Arial, sans-serif" font-size="8" font-weight="bold" 
        text-anchor="middle" fill="white">DGS</text>
</svg>
